<mxfile host="app.diagrams.net" agent="Mozilla/5.0 (X11; Ubuntu; Linux x86_64; rv:130.0) Gecko/20100101 Firefox/130.0" version="24.7.17">
  <diagram name="Page-1" id="CM-X0Qkbn6L9CL1fohQr">
    <mxGraphModel dx="819" dy="425" grid="1" gridSize="10" guides="1" tooltips="1" connect="1" arrows="1" fold="1" page="1" pageScale="1" pageWidth="850" pageHeight="1100" math="0" shadow="0">
      <root>
        <mxCell id="0" />
        <mxCell id="1" parent="0" />
        <mxCell id="dBMdnnnnXu7sC7oTlyAx-12" value="Sprzęt" style="rounded=1;whiteSpace=wrap;html=1;fillColor=none;" vertex="1" parent="1">
          <mxGeometry x="280" y="630" width="360" height="30" as="geometry" />
        </mxCell>
        <mxCell id="dBMdnnnnXu7sC7oTlyAx-13" value="Monitor bezpieczeństwa" style="rounded=1;whiteSpace=wrap;html=1;fillColor=#33d17a;" vertex="1" parent="1">
          <mxGeometry x="280" y="597" width="360" height="30" as="geometry" />
        </mxCell>
        <mxCell id="dBMdnnnnXu7sC7oTlyAx-15" value="Zaufany system operacyjny" style="rounded=1;whiteSpace=wrap;html=1;fillColor=#57e389;" vertex="1" parent="1">
          <mxGeometry x="423" y="564" width="217" height="30" as="geometry" />
        </mxCell>
        <mxCell id="dBMdnnnnXu7sC7oTlyAx-17" value="System operacyjny" style="rounded=1;whiteSpace=wrap;html=1;fillColor=#ed333b;" vertex="1" parent="1">
          <mxGeometry x="280" y="564" width="137" height="30" as="geometry" />
        </mxCell>
        <mxCell id="dBMdnnnnXu7sC7oTlyAx-21" value="Aplikacja" style="rounded=1;whiteSpace=wrap;html=1;fillColor=#f66151;" vertex="1" parent="1">
          <mxGeometry x="280" y="531" width="68" height="30" as="geometry" />
        </mxCell>
        <mxCell id="dBMdnnnnXu7sC7oTlyAx-22" value="Zaufana aplikacja" style="rounded=1;whiteSpace=wrap;html=1;fillColor=#8ff0a4;" vertex="1" parent="1">
          <mxGeometry x="423" y="531" width="107" height="30" as="geometry" />
        </mxCell>
        <mxCell id="dBMdnnnnXu7sC7oTlyAx-23" value="Zaufana aplikacja" style="rounded=1;whiteSpace=wrap;html=1;fillColor=#8ff0a4;" vertex="1" parent="1">
          <mxGeometry x="533" y="531" width="107" height="30" as="geometry" />
        </mxCell>
        <mxCell id="dBMdnnnnXu7sC7oTlyAx-24" value="Aplikacja" style="rounded=1;whiteSpace=wrap;html=1;fillColor=#f66151;" vertex="1" parent="1">
          <mxGeometry x="350" y="531" width="67" height="30" as="geometry" />
        </mxCell>
        <mxCell id="dBMdnnnnXu7sC7oTlyAx-25" value="" style="endArrow=none;dashed=1;html=1;rounded=0;exitX=0.5;exitY=0;exitDx=0;exitDy=0;" edge="1" parent="1">
          <mxGeometry width="50" height="50" relative="1" as="geometry">
            <mxPoint x="420" y="595" as="sourcePoint" />
            <mxPoint x="420" y="526" as="targetPoint" />
          </mxGeometry>
        </mxCell>
        <mxCell id="dBMdnnnnXu7sC7oTlyAx-26" value="&lt;div&gt;Separacja&lt;/div&gt;&lt;div&gt;sprzętowa&lt;br&gt;&lt;/div&gt;" style="text;html=1;align=center;verticalAlign=middle;resizable=0;points=[];autosize=1;strokeColor=none;fillColor=none;" vertex="1" parent="1">
          <mxGeometry x="380" y="489" width="80" height="40" as="geometry" />
        </mxCell>
        <mxCell id="dBMdnnnnXu7sC7oTlyAx-27" value="Środ. niezaufane" style="text;html=1;align=center;verticalAlign=middle;resizable=0;points=[];autosize=1;strokeColor=none;fillColor=none;" vertex="1" parent="1">
          <mxGeometry x="283.5" y="501" width="110" height="30" as="geometry" />
        </mxCell>
        <mxCell id="dBMdnnnnXu7sC7oTlyAx-28" value="Środ. zaufane" style="text;html=1;align=center;verticalAlign=middle;resizable=0;points=[];autosize=1;strokeColor=none;fillColor=none;" vertex="1" parent="1">
          <mxGeometry x="481.5" y="501" width="100" height="30" as="geometry" />
        </mxCell>
      </root>
    </mxGraphModel>
  </diagram>
</mxfile>
